<mxfile host="app.diagrams.net" modified="2024-07-09T08:41:24.018Z" agent="Mozilla/5.0 (Windows NT 10.0; Win64; x64) AppleWebKit/537.36 (KHTML, like Gecko) Chrome/126.0.0.0 Safari/537.36" etag="jXyIiZrljp5dIRgW2-40" version="24.6.4" type="device">
  <diagram name="Страница — 1" id="_ZfSb0egWkbznzcGyW8M">
    <mxGraphModel dx="1551" dy="666" grid="1" gridSize="10" guides="1" tooltips="1" connect="1" arrows="1" fold="1" page="1" pageScale="1" pageWidth="827" pageHeight="1169" math="0" shadow="0">
      <root>
        <mxCell id="0" />
        <mxCell id="1" parent="0" />
        <mxCell id="bvx-ucFpclsgre2pQGvy-22" value="&lt;font color=&quot;#0000ff&quot;&gt;Основной сервер&lt;/font&gt;" style="swimlane;whiteSpace=wrap;html=1;" parent="1" vertex="1">
          <mxGeometry x="320" y="310" width="600" height="730" as="geometry" />
        </mxCell>
        <mxCell id="bvx-ucFpclsgre2pQGvy-30" value="&lt;span style=&quot;font-size: 8px;&quot;&gt;&amp;nbsp;Обучающие данные&lt;/span&gt;&lt;br style=&quot;font-size: 8px;&quot;&gt;&lt;span style=&quot;font-size: 8px;&quot;&gt;(POST)&lt;/span&gt;" style="text;html=1;align=center;verticalAlign=middle;whiteSpace=wrap;rounded=0;" parent="bvx-ucFpclsgre2pQGvy-22" vertex="1">
          <mxGeometry x="240" y="80" width="80" height="30" as="geometry" />
        </mxCell>
        <mxCell id="bvx-ucFpclsgre2pQGvy-31" value="&lt;font color=&quot;#0000ff&quot;&gt;&lt;span style=&quot;font-size: 8px;&quot;&gt;Сигнал об окончании обучения&lt;/span&gt;&lt;br style=&quot;font-size: 8px;&quot;&gt;&lt;span style=&quot;font-size: 8px;&quot;&gt;(POST)&lt;/span&gt;&lt;/font&gt;" style="text;html=1;align=center;verticalAlign=middle;whiteSpace=wrap;rounded=0;" parent="bvx-ucFpclsgre2pQGvy-22" vertex="1">
          <mxGeometry x="280" y="250" width="80" height="50" as="geometry" />
        </mxCell>
        <mxCell id="bvx-ucFpclsgre2pQGvy-28" value="" style="endArrow=classic;html=1;rounded=0;entryX=-0.001;entryY=0.293;entryDx=0;entryDy=0;exitX=1.002;exitY=0.292;exitDx=0;exitDy=0;exitPerimeter=0;entryPerimeter=0;" parent="bvx-ucFpclsgre2pQGvy-22" edge="1">
          <mxGeometry width="50" height="50" relative="1" as="geometry">
            <mxPoint x="240.39999999999986" y="119.63999999999987" as="sourcePoint" />
            <mxPoint x="319.79999999999995" y="119.80999999999995" as="targetPoint" />
          </mxGeometry>
        </mxCell>
        <mxCell id="bvx-ucFpclsgre2pQGvy-32" value="&lt;font color=&quot;#0000ff&quot;&gt;&lt;span style=&quot;font-size: 8px;&quot;&gt;Запросы&lt;/span&gt;&lt;br style=&quot;font-size: 8px;&quot;&gt;&lt;span style=&quot;font-size: 8px;&quot;&gt;(SQL)&lt;/span&gt;&lt;/font&gt;" style="text;html=1;align=center;verticalAlign=middle;whiteSpace=wrap;rounded=0;" parent="bvx-ucFpclsgre2pQGvy-22" vertex="1">
          <mxGeometry x="140" y="275" width="50" height="30" as="geometry" />
        </mxCell>
        <mxCell id="bvx-ucFpclsgre2pQGvy-86" value="&lt;font color=&quot;#0000ff&quot;&gt;docker volume&lt;/font&gt;" style="swimlane;whiteSpace=wrap;html=1;" parent="bvx-ucFpclsgre2pQGvy-22" vertex="1">
          <mxGeometry x="320" y="305" width="200" height="110" as="geometry" />
        </mxCell>
        <mxCell id="bvx-ucFpclsgre2pQGvy-87" value="&lt;font color=&quot;#0000ff&quot;&gt;- хранение модели&lt;/font&gt;" style="text;strokeColor=none;fillColor=none;align=left;verticalAlign=middle;spacingLeft=4;spacingRight=4;overflow=hidden;points=[[0,0.5],[1,0.5]];portConstraint=eastwest;rotatable=0;whiteSpace=wrap;html=1;" parent="bvx-ucFpclsgre2pQGvy-86" vertex="1">
          <mxGeometry y="30" width="200" height="70" as="geometry" />
        </mxCell>
        <mxCell id="bvx-ucFpclsgre2pQGvy-89" value="" style="endArrow=classic;startArrow=classic;html=1;rounded=0;" parent="bvx-ucFpclsgre2pQGvy-22" target="bvx-ucFpclsgre2pQGvy-18" edge="1">
          <mxGeometry width="50" height="50" relative="1" as="geometry">
            <mxPoint x="419.64891985113894" y="305" as="sourcePoint" />
            <mxPoint x="420.3500000000001" y="249.82999999999993" as="targetPoint" />
          </mxGeometry>
        </mxCell>
        <mxCell id="bvx-ucFpclsgre2pQGvy-90" value="&lt;font color=&quot;#0000ff&quot;&gt;&lt;span style=&quot;font-size: 8px;&quot;&gt;Чтение файла&lt;/span&gt;&lt;span style=&quot;font-family: monospace; font-size: 0px; text-align: start; text-wrap: nowrap;&quot;&gt;%3CmxGraphModel%3E%3Croot%&lt;/span&gt;&lt;/font&gt;&lt;span style=&quot;color: rgba(0, 0, 0, 0); font-family: monospace; font-size: 0px; text-align: start; text-wrap: nowrap;&quot;&gt;3E%3CmxCell%20id%3D%220%22%2F%3E%3CmxCell%20id%3D%221%22%20parent%3D%220%22%2F%3E%3CmxCell%20id%3D%222%22%20value%3D%22%26lt%3Bspan%20style%3D%26quot%3Bfont-size%3A%208px%3B%26quot%3B%26gt%3B%D0%97%D0%B0%D0%BF%D1%80%D0%BE%D1%81%D1%8B%26lt%3B%2Fspan%26gt%3B%26lt%3Bbr%20style%3D%26quot%3Bfont-size%3A%208px%3B%26quot%3B%26gt%3B%26lt%3Bspan%20style%3D%26quot%3Bfont-size%3A%208px%3B%26quot%3B%26gt%3B(SQL)%26lt%3B%2Fspan%26gt%3B%22%20style%3D%22text%3Bhtml%3D1%3Balign%3Dcenter%3BverticalAlign%3Dmiddle%3BwhiteSpace%3Dwrap%3Brounded%3D0%3B%22%20vertex%3D%221%22%20parent%3D%221%22%3E%3CmxGeometry%20x%3D%22-20%22%20y%3D%22225%22%20width%3D%2250%22%20height%3D%2230%22%20as%3D%22geometry%22%2F%3E%3C%2FmxCell%3E%3C%2Froot%3E%3C%2FmxGraphModel%3E&lt;/span&gt;" style="text;html=1;align=center;verticalAlign=middle;whiteSpace=wrap;rounded=0;" parent="bvx-ucFpclsgre2pQGvy-22" vertex="1">
          <mxGeometry x="420" y="440" width="50" height="30" as="geometry" />
        </mxCell>
        <mxCell id="bvx-ucFpclsgre2pQGvy-91" value="&lt;font color=&quot;#0000ff&quot;&gt;&lt;span style=&quot;font-size: 8px;&quot;&gt;Чтение/изменение файла&lt;/span&gt;&lt;span style=&quot;font-family: monospace; font-size: 0px; text-align: start; text-wrap: nowrap;&quot;&gt;%3CmxGraphModel%3E%3Croot%3E%3CmxCell%20id%3D%220%22%2F%3E%3CmxCell%20id%3D%221%22%20parent%3D%220%22%2F%3E%3CmxCell%20id%3D%222%22%20value%3D%22%26lt%3Bspan%20style%3D%26quot%3Bfont-size%3A%208px%3B%26quot%3B%26gt%3B%D0%97%D0%B0%D0%BF%D1%80%D0%BE%D1%81%D1%8B%26lt%3B%2Fspan%26gt%3B%26lt%3Bbr%20style%3D%26quot%3Bfont-size%3A%208px%3B%26quot%3B%26gt%3B%26lt%3Bspan%20style%3D%26quot%3Bfont-size%3A%208px%3B%26quot%3B%26gt%3B(SQL)%26lt%3B%2Fspan%26gt%3B%22%20style%3D%22text%3Bhtml%3D1%3Balign%3Dcenter%3BverticalAlign%3Dmiddle%3BwhiteSpace%3Dwrap%3Brounded%3D0%3B%22%20vertex%3D%221%22%20parent%3D%221%22%3E%3CmxGeometry%20x%3D%22-20%22%20y%3D%22225%22%20width%3D%2250%22%20height%3D%2230%22%20as%3D%22geometry%22%2F%3E%3C%2FmxCell%3E%3C%2Froot%3E%3C%2FmxGraphModel%3E&lt;/span&gt;&lt;/font&gt;" style="text;html=1;align=center;verticalAlign=middle;whiteSpace=wrap;rounded=0;" parent="bvx-ucFpclsgre2pQGvy-22" vertex="1">
          <mxGeometry x="420" y="260" width="90" height="30" as="geometry" />
        </mxCell>
        <mxCell id="bvx-ucFpclsgre2pQGvy-79" value="&lt;font color=&quot;#0000ff&quot;&gt;entity&lt;/font&gt;" style="swimlane;whiteSpace=wrap;html=1;startSize=30;" parent="bvx-ucFpclsgre2pQGvy-22" vertex="1">
          <mxGeometry x="20" y="610" width="240" height="80" as="geometry" />
        </mxCell>
        <mxCell id="bvx-ucFpclsgre2pQGvy-82" value="&lt;font color=&quot;#0000ff&quot; style=&quot;font-size: 8px;&quot;&gt;время начала записи&lt;/font&gt;" style="rounded=0;whiteSpace=wrap;html=1;" parent="bvx-ucFpclsgre2pQGvy-79" vertex="1">
          <mxGeometry x="40" y="30" width="40" height="50" as="geometry" />
        </mxCell>
        <mxCell id="bvx-ucFpclsgre2pQGvy-83" value="&lt;span style=&quot;font-size: 8px;&quot;&gt;&lt;font color=&quot;#0000ff&quot;&gt;кол-во&lt;/font&gt;&lt;/span&gt;&lt;div&gt;&lt;span style=&quot;font-size: 8px;&quot;&gt;&lt;font color=&quot;#0000ff&quot;&gt;пакетов&lt;/font&gt;&lt;/span&gt;&lt;/div&gt;" style="rounded=0;whiteSpace=wrap;html=1;" parent="bvx-ucFpclsgre2pQGvy-79" vertex="1">
          <mxGeometry x="120" y="30" width="40" height="50" as="geometry" />
        </mxCell>
        <mxCell id="bvx-ucFpclsgre2pQGvy-84" value="&lt;span style=&quot;font-size: 8px;&quot;&gt;&lt;font color=&quot;#0000ff&quot;&gt;норм. отклонение&lt;/font&gt;&lt;/span&gt;" style="rounded=0;whiteSpace=wrap;html=1;" parent="bvx-ucFpclsgre2pQGvy-79" vertex="1">
          <mxGeometry x="160" y="30" width="40" height="50" as="geometry" />
        </mxCell>
        <mxCell id="bvx-ucFpclsgre2pQGvy-85" value="&lt;span style=&quot;font-size: 8px;&quot;&gt;&lt;font color=&quot;#0000ff&quot;&gt;...&lt;/font&gt;&lt;/span&gt;" style="rounded=0;whiteSpace=wrap;html=1;" parent="bvx-ucFpclsgre2pQGvy-79" vertex="1">
          <mxGeometry x="200" y="30" width="40" height="50" as="geometry" />
        </mxCell>
        <mxCell id="bvx-ucFpclsgre2pQGvy-97" value="&lt;font color=&quot;#0000ff&quot; style=&quot;font-size: 8px;&quot;&gt;аномалия&lt;/font&gt;&lt;div&gt;&lt;font color=&quot;#0000ff&quot; style=&quot;font-size: 8px;&quot;&gt;(bool)&lt;/font&gt;&lt;/div&gt;" style="rounded=0;whiteSpace=wrap;html=1;" parent="bvx-ucFpclsgre2pQGvy-79" vertex="1">
          <mxGeometry x="80" y="30" width="40" height="50" as="geometry" />
        </mxCell>
        <mxCell id="bvx-ucFpclsgre2pQGvy-81" value="&lt;font color=&quot;#0000ff&quot; style=&quot;font-size: 8px;&quot;&gt;id&lt;/font&gt;" style="rounded=0;whiteSpace=wrap;html=1;" parent="bvx-ucFpclsgre2pQGvy-79" vertex="1">
          <mxGeometry y="30" width="40" height="50" as="geometry" />
        </mxCell>
        <mxCell id="bvx-ucFpclsgre2pQGvy-76" value="" style="endArrow=classic;html=1;rounded=0;exitX=0.5;exitY=1;exitDx=0;exitDy=0;exitPerimeter=0;entryX=0.5;entryY=0;entryDx=0;entryDy=0;" parent="bvx-ucFpclsgre2pQGvy-22" source="bvx-ucFpclsgre2pQGvy-19" target="bvx-ucFpclsgre2pQGvy-79" edge="1">
          <mxGeometry relative="1" as="geometry">
            <mxPoint x="241.40000000000032" y="814.6199999999999" as="sourcePoint" />
            <mxPoint x="320" y="815" as="targetPoint" />
          </mxGeometry>
        </mxCell>
        <mxCell id="bvx-ucFpclsgre2pQGvy-77" value="&lt;font color=&quot;#0000ff&quot;&gt;&amp;lt;include&amp;gt;&lt;/font&gt;" style="edgeLabel;resizable=0;html=1;;align=center;verticalAlign=middle;" parent="bvx-ucFpclsgre2pQGvy-76" connectable="0" vertex="1">
          <mxGeometry relative="1" as="geometry" />
        </mxCell>
        <mxCell id="bvx-ucFpclsgre2pQGvy-5" value="&lt;font color=&quot;#0000ff&quot;&gt;Бд container&lt;/font&gt;&lt;span style=&quot;color: rgb(0, 0, 255);&quot;&gt;(:3306)&lt;/span&gt;" style="swimlane;whiteSpace=wrap;html=1;" parent="bvx-ucFpclsgre2pQGvy-22" vertex="1">
          <mxGeometry x="40" y="360" width="200" height="200" as="geometry" />
        </mxCell>
        <mxCell id="bvx-ucFpclsgre2pQGvy-19" value="&lt;font color=&quot;#0000ff&quot;&gt;- Хранение всех обработанных dump-ов&lt;/font&gt;" style="text;strokeColor=none;fillColor=none;align=left;verticalAlign=middle;spacingLeft=4;spacingRight=4;overflow=hidden;points=[[0,0.5],[1,0.5]];portConstraint=eastwest;rotatable=0;whiteSpace=wrap;html=1;" parent="bvx-ucFpclsgre2pQGvy-5" vertex="1">
          <mxGeometry y="30" width="200" height="170" as="geometry" />
        </mxCell>
        <mxCell id="GV1cjxhdsCgtF9JoILi--1" value="&lt;font color=&quot;#0000ff&quot;&gt;Анализ трафика (gpu)&amp;nbsp;(:5002)&lt;/font&gt;" style="swimlane;whiteSpace=wrap;html=1;" parent="bvx-ucFpclsgre2pQGvy-22" vertex="1">
          <mxGeometry x="320" y="490" width="200" height="200" as="geometry" />
        </mxCell>
        <mxCell id="GV1cjxhdsCgtF9JoILi--2" value="&lt;div&gt;&lt;div&gt;&lt;font color=&quot;#0000ff&quot;&gt;- Установление аномалий трафика&lt;/font&gt;&lt;/div&gt;&lt;div&gt;&lt;br&gt;&lt;/div&gt;&lt;/div&gt;" style="text;strokeColor=none;fillColor=none;align=left;verticalAlign=middle;spacingLeft=4;spacingRight=4;overflow=hidden;points=[[0,0.5],[1,0.5]];portConstraint=eastwest;rotatable=0;whiteSpace=wrap;html=1;" parent="GV1cjxhdsCgtF9JoILi--1" vertex="1">
          <mxGeometry y="30" width="200" height="170" as="geometry" />
        </mxCell>
        <mxCell id="bvx-ucFpclsgre2pQGvy-88" value="" style="endArrow=classic;startArrow=classic;html=1;rounded=0;exitX=0.5;exitY=1;exitDx=0;exitDy=0;entryX=0.5;entryY=0;entryDx=0;entryDy=0;" parent="bvx-ucFpclsgre2pQGvy-22" source="bvx-ucFpclsgre2pQGvy-86" target="GV1cjxhdsCgtF9JoILi--1" edge="1">
          <mxGeometry width="50" height="50" relative="1" as="geometry">
            <mxPoint x="150" y="445" as="sourcePoint" />
            <mxPoint x="150" y="260" as="targetPoint" />
          </mxGeometry>
        </mxCell>
        <mxCell id="GV1cjxhdsCgtF9JoILi--3" value="" style="endArrow=classic;startArrow=classic;html=1;rounded=0;exitX=0;exitY=0.5;exitDx=0;exitDy=0;entryX=1.011;entryY=0.985;entryDx=0;entryDy=0;entryPerimeter=0;" parent="bvx-ucFpclsgre2pQGvy-22" source="GV1cjxhdsCgtF9JoILi--2" target="bvx-ucFpclsgre2pQGvy-19" edge="1">
          <mxGeometry width="50" height="50" relative="1" as="geometry">
            <mxPoint x="150" y="370" as="sourcePoint" />
            <mxPoint x="150" y="260" as="targetPoint" />
          </mxGeometry>
        </mxCell>
        <mxCell id="GV1cjxhdsCgtF9JoILi--4" value="&lt;font color=&quot;#0000ff&quot;&gt;&lt;span style=&quot;font-size: 8px;&quot;&gt;Запросы&lt;/span&gt;&lt;br style=&quot;font-size: 8px;&quot;&gt;&lt;span style=&quot;font-size: 8px;&quot;&gt;(SQL)&lt;/span&gt;&lt;/font&gt;" style="text;html=1;align=center;verticalAlign=middle;whiteSpace=wrap;rounded=0;" parent="bvx-ucFpclsgre2pQGvy-22" vertex="1">
          <mxGeometry x="260" y="520" width="50" height="30" as="geometry" />
        </mxCell>
        <mxCell id="bvx-ucFpclsgre2pQGvy-1" value="&lt;font color=&quot;#0000ff&quot;&gt;Захват трафика container&lt;/font&gt;" style="swimlane;whiteSpace=wrap;html=1;" parent="1" vertex="1">
          <mxGeometry x="360" width="200" height="200" as="geometry" />
        </mxCell>
        <mxCell id="bvx-ucFpclsgre2pQGvy-15" value="&lt;font color=&quot;#0000ff&quot;&gt;- Захват трафика&lt;br&gt;- Формирование dump файлов&lt;br&gt;- Отправка dump-ов на анализ&amp;nbsp;&lt;/font&gt;&lt;div&gt;&lt;font color=&quot;#0000ff&quot;&gt;&amp;nbsp; &amp;nbsp;(1 мин)&lt;/font&gt;&lt;/div&gt;" style="text;strokeColor=none;fillColor=none;align=left;verticalAlign=middle;spacingLeft=4;spacingRight=4;overflow=hidden;points=[[0,0.5],[1,0.5]];portConstraint=eastwest;rotatable=0;whiteSpace=wrap;html=1;" parent="bvx-ucFpclsgre2pQGvy-1" vertex="1">
          <mxGeometry y="30" width="200" height="170" as="geometry" />
        </mxCell>
        <mxCell id="bvx-ucFpclsgre2pQGvy-2" value="&lt;font color=&quot;#0000ff&quot;&gt;Управляющий контейнер(:5000)&lt;/font&gt;" style="swimlane;whiteSpace=wrap;html=1;startSize=23;" parent="1" vertex="1">
          <mxGeometry x="360" y="360" width="200" height="200" as="geometry" />
        </mxCell>
        <mxCell id="bvx-ucFpclsgre2pQGvy-16" value="&lt;font color=&quot;#0000ff&quot;&gt;- Анализ трафика&lt;/font&gt;&lt;div&gt;&lt;font color=&quot;#0000ff&quot;&gt;- Преобразование dump-ов в обработанные данные&lt;/font&gt;&lt;/div&gt;&lt;div&gt;&lt;font color=&quot;#0000ff&quot;&gt;- Взаимодействие с бд&lt;/font&gt;&lt;/div&gt;&lt;div&gt;&lt;br&gt;&lt;/div&gt;" style="text;strokeColor=none;fillColor=none;align=left;verticalAlign=middle;spacingLeft=4;spacingRight=4;overflow=hidden;points=[[0,0.5],[1,0.5]];portConstraint=eastwest;rotatable=0;whiteSpace=wrap;html=1;" parent="bvx-ucFpclsgre2pQGvy-2" vertex="1">
          <mxGeometry y="30" width="200" height="170" as="geometry" />
        </mxCell>
        <mxCell id="bvx-ucFpclsgre2pQGvy-3" value="&lt;font color=&quot;#0000ff&quot;&gt;Дообуч. container (gpu) (:5003)&lt;/font&gt;" style="swimlane;whiteSpace=wrap;html=1;" parent="1" vertex="1">
          <mxGeometry x="640" y="360" width="200" height="200" as="geometry" />
        </mxCell>
        <mxCell id="bvx-ucFpclsgre2pQGvy-18" value="&lt;font color=&quot;#0000ff&quot;&gt;- Получение файла модели и обучающих данных&lt;/font&gt;&lt;br&gt;- Дообучение модели&lt;div&gt;&lt;font color=&quot;#0000ff&quot;&gt;- Отправка модели для работы&lt;/font&gt;&lt;/div&gt;" style="text;strokeColor=none;fillColor=none;align=left;verticalAlign=middle;spacingLeft=4;spacingRight=4;overflow=hidden;points=[[0,0.5],[1,0.5]];portConstraint=eastwest;rotatable=0;whiteSpace=wrap;html=1;" parent="bvx-ucFpclsgre2pQGvy-3" vertex="1">
          <mxGeometry y="30" width="200" height="170" as="geometry" />
        </mxCell>
        <mxCell id="bvx-ucFpclsgre2pQGvy-4" value="&lt;font color=&quot;#0000ff&quot;&gt;Дэшборд container&amp;nbsp;&lt;/font&gt;&lt;span style=&quot;color: rgb(0, 0, 255);&quot;&gt;(:5001)&lt;/span&gt;" style="swimlane;whiteSpace=wrap;html=1;" parent="1" vertex="1">
          <mxGeometry y="360" width="200" height="200" as="geometry" />
        </mxCell>
        <mxCell id="bvx-ucFpclsgre2pQGvy-17" value="&lt;font color=&quot;#0000ff&quot;&gt;- Запрос информации для визуализации&lt;/font&gt;&lt;div&gt;- Визуализация анализа трафика&lt;br&gt;- Возможность вручную исправлять ошибки работы для дообучения нс&lt;/div&gt;" style="text;strokeColor=none;fillColor=none;align=left;verticalAlign=middle;spacingLeft=4;spacingRight=4;overflow=hidden;points=[[0,0.5],[1,0.5]];portConstraint=eastwest;rotatable=0;whiteSpace=wrap;html=1;" parent="bvx-ucFpclsgre2pQGvy-4" vertex="1">
          <mxGeometry y="30" width="200" height="170" as="geometry" />
        </mxCell>
        <mxCell id="bvx-ucFpclsgre2pQGvy-6" value="" style="endArrow=classic;html=1;rounded=0;entryX=0.5;entryY=0;entryDx=0;entryDy=0;exitX=0.5;exitY=1;exitDx=0;exitDy=0;" parent="1" source="bvx-ucFpclsgre2pQGvy-1" target="bvx-ucFpclsgre2pQGvy-2" edge="1">
          <mxGeometry width="50" height="50" relative="1" as="geometry">
            <mxPoint x="480" y="280" as="sourcePoint" />
            <mxPoint x="480" y="360" as="targetPoint" />
          </mxGeometry>
        </mxCell>
        <mxCell id="bvx-ucFpclsgre2pQGvy-8" value="" style="endArrow=classic;html=1;rounded=0;entryX=0;entryY=0.5;entryDx=0;entryDy=0;exitX=1;exitY=0.5;exitDx=0;exitDy=0;" parent="1" source="bvx-ucFpclsgre2pQGvy-4" target="bvx-ucFpclsgre2pQGvy-2" edge="1">
          <mxGeometry width="50" height="50" relative="1" as="geometry">
            <mxPoint x="300" y="270" as="sourcePoint" />
            <mxPoint x="300" y="350" as="targetPoint" />
          </mxGeometry>
        </mxCell>
        <mxCell id="bvx-ucFpclsgre2pQGvy-9" value="" style="endArrow=classic;startArrow=classic;html=1;rounded=0;exitX=0.5;exitY=0;exitDx=0;exitDy=0;entryX=0.5;entryY=1;entryDx=0;entryDy=0;" parent="1" source="bvx-ucFpclsgre2pQGvy-5" target="bvx-ucFpclsgre2pQGvy-2" edge="1">
          <mxGeometry width="50" height="50" relative="1" as="geometry">
            <mxPoint x="570" y="469.76" as="sourcePoint" />
            <mxPoint x="650" y="469.76" as="targetPoint" />
          </mxGeometry>
        </mxCell>
        <mxCell id="bvx-ucFpclsgre2pQGvy-25" value="&lt;font color=&quot;#0000ff&quot;&gt;&lt;span style=&quot;font-size: 8px;&quot;&gt;Dump файлы&lt;/span&gt;&lt;br style=&quot;font-size: 8px;&quot;&gt;&lt;span style=&quot;font-size: 8px;&quot;&gt;(POST)&lt;/span&gt;&lt;/font&gt;" style="text;html=1;align=center;verticalAlign=middle;whiteSpace=wrap;rounded=0;" parent="1" vertex="1">
          <mxGeometry x="460" y="240" width="60" height="30" as="geometry" />
        </mxCell>
        <mxCell id="bvx-ucFpclsgre2pQGvy-27" value="&lt;font style=&quot;font-size: 8px;&quot;&gt;1) Обратная связь для дообучения (POST)&lt;br&gt;&lt;font color=&quot;#0000ff&quot;&gt;2) Запрос актуальной&lt;/font&gt;&lt;/font&gt;&lt;div&gt;&lt;font style=&quot;font-size: 8px;&quot;&gt;&lt;font color=&quot;#0000ff&quot;&gt;&amp;nbsp;аналитики (GET)&lt;/font&gt;&lt;br&gt;&lt;/font&gt;&lt;/div&gt;" style="text;html=1;align=center;verticalAlign=middle;whiteSpace=wrap;rounded=0;" parent="1" vertex="1">
          <mxGeometry x="200" y="390" width="120" height="70" as="geometry" />
        </mxCell>
        <mxCell id="bvx-ucFpclsgre2pQGvy-98" value="" style="endArrow=classic;html=1;rounded=0;exitX=-0.005;exitY=0.995;exitDx=0;exitDy=0;exitPerimeter=0;entryX=1;entryY=0;entryDx=0;entryDy=0;" parent="1" source="bvx-ucFpclsgre2pQGvy-16" target="bvx-ucFpclsgre2pQGvy-99" edge="1">
          <mxGeometry width="50" height="50" relative="1" as="geometry">
            <mxPoint x="210" y="470" as="sourcePoint" />
            <mxPoint x="240" y="650" as="targetPoint" />
          </mxGeometry>
        </mxCell>
        <mxCell id="bvx-ucFpclsgre2pQGvy-99" value="Сервис нотификации" style="swimlane;whiteSpace=wrap;html=1;" parent="1" vertex="1">
          <mxGeometry y="640" width="200" height="200" as="geometry" />
        </mxCell>
        <mxCell id="bvx-ucFpclsgre2pQGvy-100" value="- Сервис для нотификации" style="text;strokeColor=none;fillColor=none;align=left;verticalAlign=middle;spacingLeft=4;spacingRight=4;overflow=hidden;points=[[0,0.5],[1,0.5]];portConstraint=eastwest;rotatable=0;whiteSpace=wrap;html=1;" parent="bvx-ucFpclsgre2pQGvy-99" vertex="1">
          <mxGeometry y="30" width="200" height="170" as="geometry" />
        </mxCell>
        <mxCell id="bvx-ucFpclsgre2pQGvy-29" value="" style="endArrow=classic;html=1;rounded=0;entryX=0;entryY=0;entryDx=0;entryDy=0;exitX=-0.002;exitY=0.999;exitDx=0;exitDy=0;exitPerimeter=0;" parent="1" source="bvx-ucFpclsgre2pQGvy-18" target="GV1cjxhdsCgtF9JoILi--1" edge="1">
          <mxGeometry width="50" height="50" relative="1" as="geometry">
            <mxPoint x="640.0000000000002" y="510.04999999999995" as="sourcePoint" />
            <mxPoint x="560" y="510.04999999999995" as="targetPoint" />
            <Array as="points">
              <mxPoint x="600" y="560" />
              <mxPoint x="600" y="800" />
            </Array>
          </mxGeometry>
        </mxCell>
        <mxCell id="_3Z6LTuvCH6CCvITgqww-2" value="entity" style="swimlane;fontStyle=0;childLayout=stackLayout;horizontal=1;startSize=30;horizontalStack=0;resizeParent=1;resizeParentMax=0;resizeLast=0;collapsible=1;marginBottom=0;whiteSpace=wrap;html=1;" vertex="1" parent="1">
          <mxGeometry x="430" y="1070" width="140" height="210" as="geometry" />
        </mxCell>
        <mxCell id="_3Z6LTuvCH6CCvITgqww-3" value="id" style="text;strokeColor=none;fillColor=none;align=left;verticalAlign=middle;spacingLeft=4;spacingRight=4;overflow=hidden;points=[[0,0.5],[1,0.5]];portConstraint=eastwest;rotatable=0;whiteSpace=wrap;html=1;" vertex="1" parent="_3Z6LTuvCH6CCvITgqww-2">
          <mxGeometry y="30" width="140" height="30" as="geometry" />
        </mxCell>
        <mxCell id="_3Z6LTuvCH6CCvITgqww-4" value="время unix" style="text;strokeColor=none;fillColor=none;align=left;verticalAlign=middle;spacingLeft=4;spacingRight=4;overflow=hidden;points=[[0,0.5],[1,0.5]];portConstraint=eastwest;rotatable=0;whiteSpace=wrap;html=1;" vertex="1" parent="_3Z6LTuvCH6CCvITgqww-2">
          <mxGeometry y="60" width="140" height="30" as="geometry" />
        </mxCell>
        <mxCell id="_3Z6LTuvCH6CCvITgqww-5" value="surce ip" style="text;strokeColor=none;fillColor=none;align=left;verticalAlign=middle;spacingLeft=4;spacingRight=4;overflow=hidden;points=[[0,0.5],[1,0.5]];portConstraint=eastwest;rotatable=0;whiteSpace=wrap;html=1;" vertex="1" parent="_3Z6LTuvCH6CCvITgqww-2">
          <mxGeometry y="90" width="140" height="30" as="geometry" />
        </mxCell>
        <mxCell id="_3Z6LTuvCH6CCvITgqww-7" value="destination ip" style="text;strokeColor=none;fillColor=none;align=left;verticalAlign=middle;spacingLeft=4;spacingRight=4;overflow=hidden;points=[[0,0.5],[1,0.5]];portConstraint=eastwest;rotatable=0;whiteSpace=wrap;html=1;" vertex="1" parent="_3Z6LTuvCH6CCvITgqww-2">
          <mxGeometry y="120" width="140" height="30" as="geometry" />
        </mxCell>
        <mxCell id="_3Z6LTuvCH6CCvITgqww-8" value="protocol" style="text;strokeColor=none;fillColor=none;align=left;verticalAlign=middle;spacingLeft=4;spacingRight=4;overflow=hidden;points=[[0,0.5],[1,0.5]];portConstraint=eastwest;rotatable=0;whiteSpace=wrap;html=1;" vertex="1" parent="_3Z6LTuvCH6CCvITgqww-2">
          <mxGeometry y="150" width="140" height="30" as="geometry" />
        </mxCell>
        <mxCell id="_3Z6LTuvCH6CCvITgqww-9" value="size (bytes)" style="text;strokeColor=none;fillColor=none;align=left;verticalAlign=middle;spacingLeft=4;spacingRight=4;overflow=hidden;points=[[0,0.5],[1,0.5]];portConstraint=eastwest;rotatable=0;whiteSpace=wrap;html=1;" vertex="1" parent="_3Z6LTuvCH6CCvITgqww-2">
          <mxGeometry y="180" width="140" height="30" as="geometry" />
        </mxCell>
        <mxCell id="_3Z6LTuvCH6CCvITgqww-6" value="surce ip" style="text;strokeColor=none;fillColor=none;align=left;verticalAlign=middle;spacingLeft=4;spacingRight=4;overflow=hidden;points=[[0,0.5],[1,0.5]];portConstraint=eastwest;rotatable=0;whiteSpace=wrap;html=1;" vertex="1" parent="1">
          <mxGeometry x="670" y="1240" width="140" height="30" as="geometry" />
        </mxCell>
      </root>
    </mxGraphModel>
  </diagram>
</mxfile>
